<svg xmlns="http://www.w3.org/2000/svg" xmlns:xlink="http://www.w3.org/1999/xlink" width="500" zoomAndPan="magnify" viewBox="0 0 375 374.999991" height="500" preserveAspectRatio="xMidYMid meet" version="1.0"><defs><g/><clipPath id="id1"><path d="M 249 126 L 355 126 L 355 206 L 249 206 Z M 249 126 " clip-rule="nonzero"/></clipPath><clipPath id="id2"><path d="M 215.644531 114.617188 L 366.328125 110.105469 L 369.761719 224.804688 L 219.078125 229.316406 Z M 215.644531 114.617188 " clip-rule="nonzero"/></clipPath><clipPath id="id3"><path d="M 215.644531 114.617188 L 366.328125 110.105469 L 369.761719 224.804688 L 219.078125 229.316406 Z M 215.644531 114.617188 " clip-rule="nonzero"/></clipPath><clipPath id="id4"><path d="M 215.644531 114.617188 L 366.328125 110.105469 L 369.761719 224.804688 L 219.078125 229.316406 Z M 215.644531 114.617188 " clip-rule="nonzero"/></clipPath><clipPath id="id5"><path d="M 249 126 L 334 126 L 334 148 L 249 148 Z M 249 126 " clip-rule="nonzero"/></clipPath><clipPath id="id6"><path d="M 215.644531 114.617188 L 366.328125 110.105469 L 369.761719 224.804688 L 219.078125 229.316406 Z M 215.644531 114.617188 " clip-rule="nonzero"/></clipPath><clipPath id="id7"><path d="M 215.644531 114.617188 L 366.328125 110.105469 L 369.761719 224.804688 L 219.078125 229.316406 Z M 215.644531 114.617188 " clip-rule="nonzero"/></clipPath><clipPath id="id8"><path d="M 215.644531 114.617188 L 366.328125 110.105469 L 369.761719 224.804688 L 219.078125 229.316406 Z M 215.644531 114.617188 " clip-rule="nonzero"/></clipPath><clipPath id="id9"><path d="M 277 125 L 319 125 L 319 167 L 277 167 Z M 277 125 " clip-rule="nonzero"/></clipPath><clipPath id="id10"><path d="M 215.644531 114.617188 L 366.328125 110.105469 L 369.761719 224.804688 L 219.078125 229.316406 Z M 215.644531 114.617188 " clip-rule="nonzero"/></clipPath><clipPath id="id11"><path d="M 215.644531 114.617188 L 366.328125 110.105469 L 369.761719 224.804688 L 219.078125 229.316406 Z M 215.644531 114.617188 " clip-rule="nonzero"/></clipPath><clipPath id="id12"><path d="M 215.644531 114.617188 L 366.328125 110.105469 L 369.761719 224.804688 L 219.078125 229.316406 Z M 215.644531 114.617188 " clip-rule="nonzero"/></clipPath><clipPath id="id13"><path d="M 282 150 L 352 150 L 352 185 L 282 185 Z M 282 150 " clip-rule="nonzero"/></clipPath><clipPath id="id14"><path d="M 215.644531 114.617188 L 366.328125 110.105469 L 369.761719 224.804688 L 219.078125 229.316406 Z M 215.644531 114.617188 " clip-rule="nonzero"/></clipPath><clipPath id="id15"><path d="M 215.644531 114.617188 L 366.328125 110.105469 L 369.761719 224.804688 L 219.078125 229.316406 Z M 215.644531 114.617188 " clip-rule="nonzero"/></clipPath><clipPath id="id16"><path d="M 215.644531 114.617188 L 366.328125 110.105469 L 369.761719 224.804688 L 219.078125 229.316406 Z M 215.644531 114.617188 " clip-rule="nonzero"/></clipPath><clipPath id="id17"><path d="M 335 149 L 357 149 L 357 183 L 335 183 Z M 335 149 " clip-rule="nonzero"/></clipPath><clipPath id="id18"><path d="M 215.644531 114.617188 L 366.328125 110.105469 L 369.761719 224.804688 L 219.078125 229.316406 Z M 215.644531 114.617188 " clip-rule="nonzero"/></clipPath><clipPath id="id19"><path d="M 215.644531 114.617188 L 366.328125 110.105469 L 369.761719 224.804688 L 219.078125 229.316406 Z M 215.644531 114.617188 " clip-rule="nonzero"/></clipPath><clipPath id="id20"><path d="M 215.644531 114.617188 L 366.328125 110.105469 L 369.761719 224.804688 L 219.078125 229.316406 Z M 215.644531 114.617188 " clip-rule="nonzero"/></clipPath><clipPath id="id21"><path d="M 316 157 L 333 157 L 333 185 L 316 185 Z M 316 157 " clip-rule="nonzero"/></clipPath><clipPath id="id22"><path d="M 215.644531 114.617188 L 366.328125 110.105469 L 369.761719 224.804688 L 219.078125 229.316406 Z M 215.644531 114.617188 " clip-rule="nonzero"/></clipPath><clipPath id="id23"><path d="M 215.644531 114.617188 L 366.328125 110.105469 L 369.761719 224.804688 L 219.078125 229.316406 Z M 215.644531 114.617188 " clip-rule="nonzero"/></clipPath><clipPath id="id24"><path d="M 215.644531 114.617188 L 366.328125 110.105469 L 369.761719 224.804688 L 219.078125 229.316406 Z M 215.644531 114.617188 " clip-rule="nonzero"/></clipPath><clipPath id="id25"><path d="M 280 163 L 311 163 L 311 184 L 280 184 Z M 280 163 " clip-rule="nonzero"/></clipPath><clipPath id="id26"><path d="M 215.644531 114.617188 L 366.328125 110.105469 L 369.761719 224.804688 L 219.078125 229.316406 Z M 215.644531 114.617188 " clip-rule="nonzero"/></clipPath><clipPath id="id27"><path d="M 215.644531 114.617188 L 366.328125 110.105469 L 369.761719 224.804688 L 219.078125 229.316406 Z M 215.644531 114.617188 " clip-rule="nonzero"/></clipPath><clipPath id="id28"><path d="M 215.644531 114.617188 L 366.328125 110.105469 L 369.761719 224.804688 L 219.078125 229.316406 Z M 215.644531 114.617188 " clip-rule="nonzero"/></clipPath><clipPath id="id29"><path d="M 333 132 L 358 132 L 358 154 L 333 154 Z M 333 132 " clip-rule="nonzero"/></clipPath><clipPath id="id30"><path d="M 215.644531 114.617188 L 366.328125 110.105469 L 369.761719 224.804688 L 219.078125 229.316406 Z M 215.644531 114.617188 " clip-rule="nonzero"/></clipPath><clipPath id="id31"><path d="M 215.644531 114.617188 L 366.328125 110.105469 L 369.761719 224.804688 L 219.078125 229.316406 Z M 215.644531 114.617188 " clip-rule="nonzero"/></clipPath><clipPath id="id32"><path d="M 215.644531 114.617188 L 366.328125 110.105469 L 369.761719 224.804688 L 219.078125 229.316406 Z M 215.644531 114.617188 " clip-rule="nonzero"/></clipPath><clipPath id="id33"><path d="M 226 170 L 265 170 L 265 200 L 226 200 Z M 226 170 " clip-rule="nonzero"/></clipPath><clipPath id="id34"><path d="M 215.644531 114.617188 L 366.328125 110.105469 L 369.761719 224.804688 L 219.078125 229.316406 Z M 215.644531 114.617188 " clip-rule="nonzero"/></clipPath><clipPath id="id35"><path d="M 215.644531 114.617188 L 366.328125 110.105469 L 369.761719 224.804688 L 219.078125 229.316406 Z M 215.644531 114.617188 " clip-rule="nonzero"/></clipPath><clipPath id="id36"><path d="M 215.644531 114.617188 L 366.328125 110.105469 L 369.761719 224.804688 L 219.078125 229.316406 Z M 215.644531 114.617188 " clip-rule="nonzero"/></clipPath><clipPath id="id37"><path d="M 224 121 L 263 121 L 263 149 L 224 149 Z M 224 121 " clip-rule="nonzero"/></clipPath><clipPath id="id38"><path d="M 215.644531 114.617188 L 366.328125 110.105469 L 369.761719 224.804688 L 219.078125 229.316406 Z M 215.644531 114.617188 " clip-rule="nonzero"/></clipPath><clipPath id="id39"><path d="M 215.644531 114.617188 L 366.328125 110.105469 L 369.761719 224.804688 L 219.078125 229.316406 Z M 215.644531 114.617188 " clip-rule="nonzero"/></clipPath><clipPath id="id40"><path d="M 215.644531 114.617188 L 366.328125 110.105469 L 369.761719 224.804688 L 219.078125 229.316406 Z M 215.644531 114.617188 " clip-rule="nonzero"/></clipPath><clipPath id="id41"><path d="M 235 121 L 263 121 L 263 148 L 235 148 Z M 235 121 " clip-rule="nonzero"/></clipPath><clipPath id="id42"><path d="M 215.644531 114.617188 L 366.328125 110.105469 L 369.761719 224.804688 L 219.078125 229.316406 Z M 215.644531 114.617188 " clip-rule="nonzero"/></clipPath><clipPath id="id43"><path d="M 215.644531 114.617188 L 366.328125 110.105469 L 369.761719 224.804688 L 219.078125 229.316406 Z M 215.644531 114.617188 " clip-rule="nonzero"/></clipPath><clipPath id="id44"><path d="M 215.644531 114.617188 L 366.328125 110.105469 L 369.761719 224.804688 L 219.078125 229.316406 Z M 215.644531 114.617188 " clip-rule="nonzero"/></clipPath><clipPath id="id45"><path d="M 244 191 L 278 191 L 278 226 L 244 226 Z M 244 191 " clip-rule="nonzero"/></clipPath><clipPath id="id46"><path d="M 215.644531 114.617188 L 366.328125 110.105469 L 369.761719 224.804688 L 219.078125 229.316406 Z M 215.644531 114.617188 " clip-rule="nonzero"/></clipPath><clipPath id="id47"><path d="M 215.644531 114.617188 L 366.328125 110.105469 L 369.761719 224.804688 L 219.078125 229.316406 Z M 215.644531 114.617188 " clip-rule="nonzero"/></clipPath><clipPath id="id48"><path d="M 215.644531 114.617188 L 366.328125 110.105469 L 369.761719 224.804688 L 219.078125 229.316406 Z M 215.644531 114.617188 " clip-rule="nonzero"/></clipPath><clipPath id="id49"><path d="M 219 146 L 259 146 L 259 173 L 219 173 Z M 219 146 " clip-rule="nonzero"/></clipPath><clipPath id="id50"><path d="M 215.644531 114.617188 L 366.328125 110.105469 L 369.761719 224.804688 L 219.078125 229.316406 Z M 215.644531 114.617188 " clip-rule="nonzero"/></clipPath><clipPath id="id51"><path d="M 215.644531 114.617188 L 366.328125 110.105469 L 369.761719 224.804688 L 219.078125 229.316406 Z M 215.644531 114.617188 " clip-rule="nonzero"/></clipPath><clipPath id="id52"><path d="M 215.644531 114.617188 L 366.328125 110.105469 L 369.761719 224.804688 L 219.078125 229.316406 Z M 215.644531 114.617188 " clip-rule="nonzero"/></clipPath><clipPath id="id53"><path d="M 277 125 L 319 125 L 319 146 L 277 146 Z M 277 125 " clip-rule="nonzero"/></clipPath><clipPath id="id54"><path d="M 215.644531 114.617188 L 366.328125 110.105469 L 369.761719 224.804688 L 219.078125 229.316406 Z M 215.644531 114.617188 " clip-rule="nonzero"/></clipPath><clipPath id="id55"><path d="M 215.644531 114.617188 L 366.328125 110.105469 L 369.761719 224.804688 L 219.078125 229.316406 Z M 215.644531 114.617188 " clip-rule="nonzero"/></clipPath><clipPath id="id56"><path d="M 215.644531 114.617188 L 366.328125 110.105469 L 369.761719 224.804688 L 219.078125 229.316406 Z M 215.644531 114.617188 " clip-rule="nonzero"/></clipPath><clipPath id="id57"><path d="M 243 115 L 326 115 L 326 140 L 243 140 Z M 243 115 " clip-rule="nonzero"/></clipPath><clipPath id="id58"><path d="M 215.644531 114.617188 L 366.328125 110.105469 L 369.761719 224.804688 L 219.078125 229.316406 Z M 215.644531 114.617188 " clip-rule="nonzero"/></clipPath><clipPath id="id59"><path d="M 215.644531 114.617188 L 366.328125 110.105469 L 369.761719 224.804688 L 219.078125 229.316406 Z M 215.644531 114.617188 " clip-rule="nonzero"/></clipPath><clipPath id="id60"><path d="M 215.644531 114.617188 L 366.328125 110.105469 L 369.761719 224.804688 L 219.078125 229.316406 Z M 215.644531 114.617188 " clip-rule="nonzero"/></clipPath><clipPath id="id61"><path d="M 243 115 L 279 115 L 279 140 L 243 140 Z M 243 115 " clip-rule="nonzero"/></clipPath><clipPath id="id62"><path d="M 215.644531 114.617188 L 366.328125 110.105469 L 369.761719 224.804688 L 219.078125 229.316406 Z M 215.644531 114.617188 " clip-rule="nonzero"/></clipPath><clipPath id="id63"><path d="M 215.644531 114.617188 L 366.328125 110.105469 L 369.761719 224.804688 L 219.078125 229.316406 Z M 215.644531 114.617188 " clip-rule="nonzero"/></clipPath><clipPath id="id64"><path d="M 215.644531 114.617188 L 366.328125 110.105469 L 369.761719 224.804688 L 219.078125 229.316406 Z M 215.644531 114.617188 " clip-rule="nonzero"/></clipPath><clipPath id="id65"><path d="M 274 142 L 367 142 L 367 194 L 274 194 Z M 274 142 " clip-rule="nonzero"/></clipPath><clipPath id="id66"><path d="M 215.644531 114.617188 L 366.328125 110.105469 L 369.761719 224.804688 L 219.078125 229.316406 Z M 215.644531 114.617188 " clip-rule="nonzero"/></clipPath><clipPath id="id67"><path d="M 215.644531 114.617188 L 366.328125 110.105469 L 369.761719 224.804688 L 219.078125 229.316406 Z M 215.644531 114.617188 " clip-rule="nonzero"/></clipPath><clipPath id="id68"><path d="M 215.644531 114.617188 L 366.328125 110.105469 L 369.761719 224.804688 L 219.078125 229.316406 Z M 215.644531 114.617188 " clip-rule="nonzero"/></clipPath><clipPath id="id69"><path d="M 287 146 L 305 146 L 305 161 L 287 161 Z M 287 146 " clip-rule="nonzero"/></clipPath><clipPath id="id70"><path d="M 215.644531 114.617188 L 366.328125 110.105469 L 369.761719 224.804688 L 219.078125 229.316406 Z M 215.644531 114.617188 " clip-rule="nonzero"/></clipPath><clipPath id="id71"><path d="M 215.644531 114.617188 L 366.328125 110.105469 L 369.761719 224.804688 L 219.078125 229.316406 Z M 215.644531 114.617188 " clip-rule="nonzero"/></clipPath><clipPath id="id72"><path d="M 215.644531 114.617188 L 366.328125 110.105469 L 369.761719 224.804688 L 219.078125 229.316406 Z M 215.644531 114.617188 " clip-rule="nonzero"/></clipPath><clipPath id="id73"><path d="M 217 113 L 369 113 L 369 228 L 217 228 Z M 217 113 " clip-rule="nonzero"/></clipPath><clipPath id="id74"><path d="M 215.644531 114.617188 L 366.328125 110.105469 L 369.761719 224.804688 L 219.078125 229.316406 Z M 215.644531 114.617188 " clip-rule="nonzero"/></clipPath><clipPath id="id75"><path d="M 215.644531 114.617188 L 366.328125 110.105469 L 369.761719 224.804688 L 219.078125 229.316406 Z M 215.644531 114.617188 " clip-rule="nonzero"/></clipPath><clipPath id="id76"><path d="M 215.644531 114.617188 L 366.328125 110.105469 L 369.761719 224.804688 L 219.078125 229.316406 Z M 215.644531 114.617188 " clip-rule="nonzero"/></clipPath><clipPath id="id77"><path d="M 132 167 L 153 167 L 153 187 L 132 187 Z M 132 167 " clip-rule="nonzero"/></clipPath><clipPath id="id78"><path d="M 133.613281 167.179688 L 152.300781 168.726562 L 150.816406 186.664062 L 132.128906 185.121094 Z M 133.613281 167.179688 " clip-rule="nonzero"/></clipPath></defs><g clip-path="url(#id1)"><g clip-path="url(#id2)"><g clip-path="url(#id3)"><g clip-path="url(#id4)"><path fill="#aed885" d="M 281.707031 205.96875 L 336.378906 204.332031 C 346.695312 204.023438 354.808594 195.394531 354.5 185.058594 L 353.53125 152.664062 C 353.085938 137.800781 340.695312 126.113281 325.859375 126.554688 L 262.128906 128.464844 C 255.121094 128.671875 249.609375 134.53125 249.820312 141.550781 L 250.878906 176.886719 C 251.375 193.441406 265.179688 206.464844 281.707031 205.96875 Z M 281.707031 205.96875 " fill-opacity="1" fill-rule="nonzero"/></g></g></g></g><g clip-path="url(#id5)"><g clip-path="url(#id6)"><g clip-path="url(#id7)"><g clip-path="url(#id8)"><path fill="#87d27f" d="M 262.128906 128.464844 C 255.121094 128.671875 249.609375 134.53125 249.820312 141.550781 L 249.917969 144.734375 C 260.316406 149.960938 272.488281 147.757812 283.347656 142.640625 C 290.167969 139.429688 296.671875 137.578125 301.671875 137.429688 C 305.527344 137.3125 306.976562 138.25 307.125 138.488281 C 311.261719 144.984375 320.015625 147.117188 326.722656 142.832031 C 332.039062 139.4375 334.335938 133.0625 332.824219 127.257812 C 330.59375 126.730469 328.257812 126.484375 325.859375 126.554688 Z M 262.128906 128.464844 " fill-opacity="1" fill-rule="nonzero"/></g></g></g></g><g clip-path="url(#id9)"><g clip-path="url(#id10)"><g clip-path="url(#id11)"><g clip-path="url(#id12)"><path fill="#f9efcd" d="M 318.113281 140.503906 C 320.988281 151.554688 314.375 162.84375 303.339844 165.722656 C 292.308594 168.597656 281.035156 161.972656 278.160156 150.921875 C 275.289062 139.871094 281.902344 128.582031 292.933594 125.703125 C 303.964844 122.828125 315.238281 129.453125 318.113281 140.503906 Z M 318.113281 140.503906 " fill-opacity="1" fill-rule="nonzero"/></g></g></g></g><g clip-path="url(#id13)"><g clip-path="url(#id14)"><g clip-path="url(#id15)"><g clip-path="url(#id16)"><path fill="#f9efcd" d="M 351.847656 182.613281 C 351.652344 176.117188 351.8125 156.300781 347.351562 150.945312 C 337.597656 155.542969 292.097656 176.066406 282.113281 165.707031 C 282.597656 171.777344 286.878906 185.128906 306.21875 184.546875 C 325.554688 183.96875 351.847656 182.613281 351.847656 182.613281 Z M 351.847656 182.613281 " fill-opacity="1" fill-rule="nonzero"/></g></g></g></g><g clip-path="url(#id17)"><g clip-path="url(#id18)"><g clip-path="url(#id19)"><g clip-path="url(#id20)"><path fill="#f8debb" d="M 335.21875 154.664062 C 342.121094 159.496094 347.128906 177.960938 348.433594 182.542969 L 355.304688 182.140625 C 357.871094 170.328125 354.273438 150.480469 353.105469 149.21875 Z M 335.21875 154.664062 " fill-opacity="1" fill-rule="nonzero"/></g></g></g></g><g clip-path="url(#id21)"><g clip-path="url(#id22)"><g clip-path="url(#id23)"><g clip-path="url(#id24)"><path fill="#f8debb" d="M 329.996094 157.152344 C 332.679688 164.777344 333.386719 178.984375 330.792969 183.8125 L 324.382812 184.003906 C 324.21875 178.464844 319.996094 165.058594 316.398438 161.746094 Z M 329.996094 157.152344 " fill-opacity="1" fill-rule="nonzero"/></g></g></g></g><g clip-path="url(#id25)"><g clip-path="url(#id26)"><g clip-path="url(#id27)"><g clip-path="url(#id28)"><path fill="#f8debb" d="M 308.753906 164.726562 C 311.3125 170.964844 309.753906 181.921875 307.242188 183.898438 C 303.09375 184.164062 280.175781 178.632812 280.046875 163.921875 C 284.617188 165.367188 299.988281 168.601562 308.753906 164.726562 Z M 308.753906 164.726562 " fill-opacity="1" fill-rule="nonzero"/></g></g></g></g><g clip-path="url(#id29)"><g clip-path="url(#id30)"><g clip-path="url(#id31)"><g clip-path="url(#id32)"><path fill="#f4ec84" d="M 357.351562 145.324219 C 357.140625 138.277344 351.976562 132.714844 345.8125 132.898438 C 338.082031 133.128906 333.167969 138.996094 333.378906 146.042969 C 333.46875 149.019531 333.953125 151.296875 334.726562 153.027344 Z M 357.351562 145.324219 " fill-opacity="1" fill-rule="nonzero"/></g></g></g></g><g clip-path="url(#id33)"><g clip-path="url(#id34)"><g clip-path="url(#id35)"><g clip-path="url(#id36)"><path fill="#6fcc8f" d="M 263.285156 178.4375 C 266.195312 184.917969 263.148438 192.609375 256.476562 195.613281 C 246.160156 200.261719 230.199219 201.128906 227.289062 194.648438 C 224.378906 188.167969 235.621094 176.785156 245.9375 172.144531 C 252.609375 169.136719 260.375 171.957031 263.285156 178.4375 Z M 263.285156 178.4375 " fill-opacity="1" fill-rule="nonzero"/></g></g></g></g><g clip-path="url(#id37)"><g clip-path="url(#id38)"><g clip-path="url(#id39)"><g clip-path="url(#id40)"><path fill="#6fcc8f" d="M 261.523438 140.714844 C 264.042969 134.070312 260.539062 126.578125 253.703125 123.976562 C 243.128906 119.957031 227.144531 120.042969 224.625 126.6875 C 222.109375 133.328125 234.011719 144.019531 244.585938 148.039062 C 251.425781 150.636719 259.007812 147.359375 261.523438 140.714844 Z M 261.523438 140.714844 " fill-opacity="1" fill-rule="nonzero"/></g></g></g></g><g clip-path="url(#id41)"><g clip-path="url(#id42)"><g clip-path="url(#id43)"><g clip-path="url(#id44)"><path fill="#4dbf76" d="M 256.296875 147.003906 C 258.621094 145.585938 260.496094 143.429688 261.523438 140.714844 C 264.042969 134.070312 260.539062 126.578125 253.699219 123.976562 C 248.066406 121.835938 240.894531 120.859375 235.046875 121.417969 C 235.039062 121.683594 235.035156 121.949219 235.042969 122.21875 C 235.234375 128.558594 238.703125 137.957031 247.855469 143.582031 C 250.546875 145.242188 253.382812 146.351562 256.296875 147.003906 Z M 256.296875 147.003906 " fill-opacity="1" fill-rule="nonzero"/></g></g></g></g><g clip-path="url(#id45)"><g clip-path="url(#id46)"><g clip-path="url(#id47)"><g clip-path="url(#id48)"><path fill="#87d27f" d="M 273.882812 194.675781 C 279.046875 199.546875 279.171875 207.820312 274.15625 213.152344 C 266.402344 221.398438 251.988281 228.320312 246.824219 223.449219 C 241.65625 218.578125 247.695312 203.753906 255.449219 195.507812 C 260.464844 190.175781 268.71875 189.800781 273.882812 194.675781 Z M 273.882812 194.675781 " fill-opacity="1" fill-rule="nonzero"/></g></g></g></g><g clip-path="url(#id49)"><g clip-path="url(#id50)"><g clip-path="url(#id51)"><g clip-path="url(#id52)"><path fill="#87d27f" d="M 258.738281 159.054688 C 258.949219 166.160156 253.195312 172.09375 245.882812 172.3125 C 234.578125 172.652344 219.5 167.339844 219.289062 160.234375 C 219.074219 153.132812 233.808594 146.929688 245.113281 146.589844 C 252.425781 146.371094 258.523438 151.953125 258.738281 159.054688 Z M 258.738281 159.054688 " fill-opacity="1" fill-rule="nonzero"/></g></g></g></g><g clip-path="url(#id53)"><g clip-path="url(#id54)"><g clip-path="url(#id55)"><g clip-path="url(#id56)"><path fill="#f8debb" d="M 297.503906 125.039062 C 286.535156 125.367188 277.828125 134.207031 277.496094 145.046875 C 279.476562 144.351562 281.433594 143.542969 283.347656 142.640625 C 290.167969 139.429688 296.671875 137.578125 301.671875 137.429688 C 305.527344 137.3125 306.976562 138.25 307.125 138.488281 C 309.726562 142.574219 314.15625 144.933594 318.75 145.054688 C 318.394531 133.65625 308.890625 124.695312 297.503906 125.039062 Z M 297.503906 125.039062 " fill-opacity="1" fill-rule="nonzero"/></g></g></g></g><g clip-path="url(#id57)"><g clip-path="url(#id58)"><g clip-path="url(#id59)"><g clip-path="url(#id60)"><path fill="#e6879c" d="M 279.84375 135.175781 C 295.921875 127.601562 309.679688 127.148438 314.074219 134.054688 C 315.839844 136.832031 319.523438 137.648438 322.296875 135.878906 C 325.070312 134.105469 325.882812 130.417969 324.113281 127.640625 C 320.050781 121.253906 312.777344 117.558594 303.632812 117.238281 C 295.289062 116.945312 285.3125 119.414062 274.773438 124.378906 C 267.644531 127.738281 261.847656 128.464844 258.453125 126.421875 C 255.871094 124.871094 255.207031 122.09375 255.183594 121.609375 C 255.085938 118.316406 252.339844 115.730469 249.054688 115.828125 C 245.765625 115.925781 243.179688 118.679688 243.277344 121.972656 C 243.414062 126.59375 246.21875 132.898438 252.164062 136.554688 C 260.472656 141.664062 270.988281 139.347656 279.84375 135.175781 Z M 279.84375 135.175781 " fill-opacity="1" fill-rule="nonzero"/></g></g></g></g><g clip-path="url(#id61)"><g clip-path="url(#id62)"><g clip-path="url(#id63)"><g clip-path="url(#id64)"><path fill="#e06e7e" d="M 274.589844 124.464844 C 267.542969 127.746094 261.816406 128.445312 258.453125 126.421875 C 255.871094 124.871094 255.207031 122.09375 255.183594 121.609375 C 255.085938 118.316406 252.339844 115.730469 249.050781 115.828125 C 245.761719 115.925781 243.179688 118.679688 243.277344 121.972656 C 243.414062 126.59375 246.21875 132.898438 252.164062 136.554688 C 260.039062 141.398438 269.902344 139.566406 278.449219 135.808594 C 274.351562 134.972656 270.757812 129.316406 274.589844 124.464844 Z M 274.589844 124.464844 " fill-opacity="1" fill-rule="nonzero"/></g></g></g></g><g clip-path="url(#id65)"><g clip-path="url(#id66)"><g clip-path="url(#id67)"><g clip-path="url(#id68)"><path fill="#e6879c" d="M 360.832031 176.675781 C 333.398438 177.496094 297.101562 183.753906 287.804688 171.398438 C 310.25 174.425781 343.710938 153.828125 360.132812 153.335938 C 363.011719 153.25 365.273438 150.84375 365.1875 147.960938 C 365.101562 145.082031 362.699219 142.8125 359.820312 142.898438 C 339.191406 143.519531 298.203125 169.296875 282.957031 158.828125 C 279.441406 156.414062 274.671875 159.03125 274.800781 163.289062 C 275.019531 170.5625 277.527344 176.429688 282.261719 180.722656 C 290.832031 188.5 305.207031 189.832031 321.710938 189.339844 C 330.960938 189.058594 340.953125 188.203125 350.597656 187.613281 L 350.652344 189.394531 C 350.726562 191.894531 352.808594 193.855469 355.300781 193.78125 L 362.035156 193.578125 C 364.527344 193.503906 366.488281 191.421875 366.414062 188.925781 L 366.195312 181.738281 C 366.109375 178.855469 363.707031 176.589844 360.832031 176.675781 Z M 360.832031 176.675781 " fill-opacity="1" fill-rule="nonzero"/></g></g></g></g><g clip-path="url(#id69)"><g clip-path="url(#id70)"><g clip-path="url(#id71)"><g clip-path="url(#id72)"><path fill="#eca0aa" d="M 304.332031 153.003906 C 304.445312 156.75 300.730469 159.902344 296.03125 160.042969 C 291.335938 160.183594 287.4375 157.257812 287.328125 153.515625 C 287.214844 149.769531 290.929688 146.617188 295.625 146.476562 C 300.324219 146.335938 304.222656 149.257812 304.332031 153.003906 Z M 304.332031 153.003906 " fill-opacity="1" fill-rule="nonzero"/></g></g></g></g><g clip-path="url(#id73)"><g clip-path="url(#id74)"><g clip-path="url(#id75)"><g clip-path="url(#id76)"><path fill="#000000" d="M 255.992188 213.699219 C 256.878906 214.535156 258.277344 214.496094 259.109375 213.605469 L 264.808594 207.546875 C 265.644531 206.660156 265.601562 205.261719 264.714844 204.421875 C 263.828125 203.585938 262.433594 203.628906 261.597656 204.515625 L 255.898438 210.574219 C 255.0625 211.464844 255.105469 212.863281 255.992188 213.699219 Z M 300.375 139.46875 C 296.929688 139.570312 294.207031 142.464844 294.3125 145.917969 C 294.347656 147.136719 295.363281 148.097656 296.582031 148.058594 C 297.800781 148.023438 298.757812 147.007812 298.722656 145.785156 C 298.691406 144.769531 299.492188 143.917969 300.507812 143.886719 C 301.523438 143.855469 302.375 144.65625 302.40625 145.675781 C 302.441406 146.894531 303.460938 147.855469 304.675781 147.816406 C 305.898438 147.78125 306.851562 146.765625 306.816406 145.542969 C 306.714844 142.089844 303.824219 139.367188 300.375 139.46875 Z M 360.765625 174.464844 C 359.976562 174.488281 359.175781 174.519531 358.371094 174.550781 C 358.589844 168.101562 357.878906 161.015625 357.027344 155.863281 C 358.15625 155.683594 359.21875 155.574219 360.199219 155.542969 C 364.289062 155.421875 367.515625 151.992188 367.390625 147.894531 C 367.269531 143.800781 363.84375 140.570312 359.753906 140.691406 C 359.441406 140.699219 359.117188 140.71875 358.796875 140.738281 C 356.894531 134.679688 351.589844 130.1875 344.851562 130.742188 C 335.3125 123.074219 325.113281 124.472656 324.488281 124.386719 C 319.863281 118.640625 312.585938 115.34375 303.710938 115.03125 C 295.023438 114.722656 284.691406 117.265625 273.835938 122.378906 C 264.816406 126.628906 260.867188 125.296875 259.585938 124.527344 C 258.039062 123.597656 257.472656 121.917969 257.386719 121.445312 C 257.199219 116.988281 253.453125 113.488281 248.988281 113.621094 C 245.492188 113.726562 242.570312 116.027344 241.503906 119.164062 C 237.601562 118.898438 233.894531 119.136719 230.910156 119.863281 C 225.394531 121.203125 223.328125 123.886719 222.5625 125.902344 C 221.792969 127.933594 221.933594 130.226562 222.984375 132.71875 C 223.457031 133.835938 224.75 134.371094 225.875 133.894531 C 227 133.417969 227.523438 132.125 227.050781 131 C 226.457031 129.589844 226.335938 128.402344 226.6875 127.472656 C 227.769531 124.613281 233.738281 123.058594 241.199219 123.574219 C 241.855469 128.578125 244.992188 134.738281 251.007812 138.4375 C 253.5 139.96875 256.128906 140.882812 258.800781 141.335938 C 257.511719 143.613281 255.386719 145.34375 252.824219 146.175781 C 249.175781 144.253906 245.933594 144.1875 242.207031 144.578125 C 239 142.984375 235.789062 140.851562 233.105469 138.511719 C 232.183594 137.707031 230.792969 137.804688 229.992188 138.726562 C 229.191406 139.648438 229.289062 141.042969 230.207031 141.84375 C 231.820312 143.25 233.609375 144.582031 235.472656 145.792969 C 226.011719 148.195312 216.878906 153.46875 217.082031 160.300781 C 217.300781 167.59375 228.027344 172.476562 238.234375 174.015625 C 235.105469 176.179688 232.179688 178.742188 229.851562 181.414062 C 225.203125 186.75 223.578125 191.773438 225.277344 195.554688 C 227.550781 200.617188 234.746094 201.664062 240.289062 201.496094 C 243.070312 201.414062 246.027344 201.027344 248.921875 200.382812 C 246.960938 203.453125 245.316406 206.785156 244.207031 210.027344 C 241.867188 216.839844 242.261719 222.179688 245.3125 225.058594 C 246.960938 226.613281 249.277344 227.347656 252.109375 227.265625 C 260.019531 227.027344 270.222656 220.558594 275.761719 214.667969 C 277.527344 212.792969 278.78125 210.5625 279.460938 208.160156 C 281.695312 208.253906 279.835938 208.207031 329.335938 206.753906 C 330.554688 206.71875 331.511719 205.699219 331.476562 204.480469 C 331.4375 203.257812 330.421875 202.300781 329.203125 202.335938 C 279.167969 203.816406 281.679688 203.804688 280.042969 203.757812 C 279.9375 195.515625 273.453125 189.230469 265.5625 189.050781 C 267.007812 185.355469 266.957031 181.230469 265.296875 177.53125 C 263.640625 173.839844 260.546875 171.054688 256.820312 169.679688 C 259.480469 166.878906 261.066406 163.097656 260.945312 158.988281 C 260.832031 155.210938 259.292969 151.796875 256.847656 149.21875 C 259.863281 147.558594 262.238281 144.914062 263.511719 141.683594 C 267.828125 141.621094 272.15625 140.59375 276.253906 139.078125 C 275.542969 141.429688 275.214844 143.890625 275.289062 146.382812 C 275.390625 149.789062 276.234375 153.074219 277.753906 156.058594 C 274.570312 157.089844 272.496094 160.046875 272.597656 163.355469 C 272.832031 171.253906 275.585938 177.648438 280.78125 182.363281 C 294.65625 194.949219 322.054688 191.671875 348.480469 189.960938 C 348.632812 191.414062 349.246094 192.71875 350.164062 193.742188 C 347.851562 197.828125 343.890625 200.78125 339.28125 201.765625 C 338.089844 202.019531 337.328125 203.195312 337.585938 204.390625 C 337.839844 205.570312 339 206.34375 340.203125 206.089844 C 346.0625 204.835938 351.097656 201.085938 354.023438 195.894531 C 355.191406 196.09375 355.480469 195.945312 362.101562 195.789062 C 365.804688 195.675781 368.730469 192.570312 368.617188 188.855469 L 368.402344 181.667969 C 368.28125 177.574219 364.855469 174.34375 360.765625 174.464844 Z M 272.371094 196.28125 C 276.636719 200.308594 276.746094 207.179688 272.550781 211.636719 C 268.933594 215.484375 263.617188 219.140625 258.679688 221.175781 C 253.867188 223.164062 250 223.410156 248.335938 221.839844 C 246.671875 220.273438 246.6875 216.390625 248.378906 211.460938 C 250.113281 206.402344 253.4375 200.871094 257.054688 197.023438 C 261.253906 192.558594 268.109375 192.261719 272.371094 196.28125 Z M 261.273438 179.34375 C 262.820312 182.789062 262.363281 186.78125 260.105469 189.90625 C 257.308594 190.882812 255.261719 192.429688 253.398438 194.480469 C 243.226562 198.253906 231.175781 197.921875 229.300781 193.742188 C 228.378906 191.6875 229.828125 188.164062 233.175781 184.320312 C 236.519531 180.484375 241.433594 176.757812 246.085938 174.515625 C 248.15625 174.4375 250.117188 173.960938 251.894531 173.167969 C 255.988281 173.3125 259.636719 175.695312 261.273438 179.34375 Z M 245.820312 170.105469 C 234.601562 170.441406 221.640625 165.148438 221.492188 160.171875 C 221.34375 155.191406 233.964844 149.132812 245.179688 148.800781 C 251.265625 148.617188 256.355469 153.246094 256.53125 159.121094 C 256.707031 164.996094 251.902344 169.921875 245.820312 170.105469 Z M 345.878906 135.105469 C 349.535156 134.996094 352.824219 137.5 354.3125 141.289062 C 348.75 142.265625 342.378906 144.320312 335.621094 146.738281 C 335.605469 146.488281 335.589844 146.234375 335.582031 145.972656 C 335.402344 139.863281 339.730469 135.292969 345.878906 135.105469 Z M 326.984375 128.753906 C 331.34375 128.8125 335.570312 130.023438 339.277344 132.238281 C 333.886719 134.851562 331 140.28125 331.171875 146.105469 C 331.195312 146.863281 331.246094 147.59375 331.320312 148.300781 C 327.394531 149.738281 323.722656 151.121094 319.945312 152.46875 C 321.332031 147.984375 321.28125 143.269531 319.960938 138.972656 C 324.890625 138.453125 328.265625 133.625 326.984375 128.753906 Z M 253.316406 134.671875 C 248.074219 131.445312 245.601562 125.9375 245.484375 121.90625 C 245.421875 119.835938 247.050781 118.097656 249.117188 118.039062 C 251.183594 117.976562 252.917969 119.609375 252.980469 121.675781 C 252.980469 121.691406 252.980469 121.703125 252.980469 121.71875 C 253.046875 123.0625 254.195312 126.4375 257.316406 128.316406 C 261.421875 130.785156 267.78125 130.113281 275.710938 126.378906 C 285.9375 121.5625 295.570312 119.164062 303.558594 119.449219 C 311.953125 119.742188 318.59375 123.074219 322.253906 128.828125 C 323.367188 130.574219 322.851562 132.902344 321.109375 134.015625 C 319.367188 135.125 317.042969 134.613281 315.929688 132.867188 C 310.835938 124.859375 296.300781 124.980469 278.90625 133.175781 C 271.667969 136.585938 261.351562 139.613281 253.316406 134.671875 Z M 314.378906 154.398438 C 302.015625 158.523438 290.269531 161.171875 284.203125 157.003906 C 283.847656 156.761719 283.476562 156.554688 283.09375 156.378906 C 280.980469 153.40625 279.808594 149.917969 279.699219 146.25 C 279.597656 142.84375 280.425781 139.511719 282.105469 136.566406 C 289.226562 133.359375 295.878906 131.574219 301.410156 131.394531 L 301.484375 131.390625 C 304.550781 131.300781 309.949219 131.6875 312.210938 135.242188 C 312.886719 136.304688 313.769531 137.15625 314.769531 137.777344 C 317.292969 143.082031 317.128906 149.257812 314.378906 154.398438 Z M 364.207031 188.988281 C 364.246094 190.265625 363.242188 191.332031 361.96875 191.371094 L 355.234375 191.574219 C 353.960938 191.609375 352.894531 190.605469 352.859375 189.328125 L 352.804688 187.550781 C 352.765625 186.296875 351.699219 185.332031 350.464844 185.410156 C 324.078125 187.023438 296.449219 190.613281 283.742188 179.085938 C 279.472656 175.210938 277.207031 169.875 277.007812 163.222656 C 276.933594 160.769531 279.675781 159.253906 281.710938 160.652344 C 298.289062 172.035156 339.449219 145.722656 359.886719 145.109375 C 361.542969 145.058594 362.929688 146.367188 362.980469 148.027344 C 363.03125 149.6875 361.722656 151.078125 360.066406 151.125 C 343.070312 151.636719 309.855469 172.140625 288.101562 169.207031 C 286.160156 168.949219 284.867188 171.164062 286.042969 172.726562 C 296.226562 186.261719 331.5625 179.761719 360.898438 178.882812 C 362.554688 178.832031 363.941406 180.144531 363.992188 181.800781 Z M 333.75 163.246094 C 335.007812 162.773438 336.546875 162.199219 338.148438 161.601562 C 340.117188 164.960938 342.070312 169.585938 343.976562 175.386719 C 340.652344 175.613281 337.691406 175.824219 334.5625 176.027344 C 334.75 172.054688 334.460938 167.46875 333.75 163.246094 Z M 342.355469 160.070312 C 346.050781 158.753906 349.550781 157.597656 352.710938 156.785156 C 353.523438 161.789062 354.195312 168.625 353.949219 174.761719 C 352.152344 174.855469 350.339844 174.964844 348.519531 175.082031 C 346.535156 168.882812 344.46875 163.851562 342.355469 160.070312 Z M 330.132812 176.296875 C 328.523438 176.386719 326.917969 176.46875 325.328125 176.539062 C 324.527344 173.425781 323.449219 170.195312 322.292969 167.4375 C 324.726562 166.589844 327.148438 165.707031 329.53125 164.820312 C 330.113281 168.660156 330.332031 172.816406 330.132812 176.296875 Z M 312.199219 170.664062 C 314.160156 170.105469 316.132812 169.496094 318.097656 168.855469 C 319.105469 171.203125 320.058594 173.964844 320.804688 176.691406 C 317.785156 176.769531 314.839844 176.777344 312.035156 176.691406 C 312.269531 174.695312 312.324219 172.628906 312.199219 170.664062 Z M 307.835938 171.8125 C 307.882812 173.347656 307.808594 174.9375 307.609375 176.457031 C 302.582031 176.074219 298.171875 175.28125 294.804688 173.851562 C 298.984375 173.648438 303.367188 172.898438 307.835938 171.8125 Z M 248.171875 182.820312 L 240.59375 186.234375 C 239.480469 186.734375 238.984375 188.042969 239.488281 189.15625 C 239.984375 190.269531 241.289062 190.765625 242.402344 190.265625 L 249.980469 186.851562 C 251.09375 186.351562 251.589844 185.042969 251.089844 183.929688 C 250.589844 182.816406 249.285156 182.320312 248.171875 182.820312 Z M 243.101562 157.3125 L 234.792969 157.5625 C 233.574219 157.597656 232.617188 158.617188 232.652344 159.835938 C 232.691406 161.054688 233.707031 162.015625 234.925781 161.980469 L 243.230469 161.730469 C 244.449219 161.695312 245.40625 160.675781 245.371094 159.457031 C 245.335938 158.234375 244.320312 157.277344 243.101562 157.3125 Z M 243.101562 157.3125 " fill-opacity="1" fill-rule="nonzero"/></g></g></g></g><g fill="#d88497" fill-opacity="1"><g transform="translate(152.665687, 222.691211)"><g><path d="M 29.4375 -2.707031 C 29.363281 -3.4375 29.554688 -5.226562 29.59375 -7.074219 L 28.972656 -13.277344 C 28.921875 -13.789062 28.800781 -14.292969 28.75 -14.800781 C 27.128906 -14.789062 25.421875 -14.914062 23.800781 -14.898438 C 20.558594 -14.871094 17.09375 -14.894531 14.3125 -16.902344 L 12.636719 -18.210938 L 12.125 -21.847656 L 12.515625 -24.613281 C 16.472656 -30.753906 16.675781 -30.921875 16.675781 -30.921875 C 19.554688 -33.125 21.511719 -34.207031 24.371094 -35.078125 L 25.242188 -35.238281 L 27.21875 -36.101562 L 28.125 -36.632812 L 26.773438 -47.261719 L 26.734375 -47.625 C 26.070312 -47.632812 25.480469 -47.648438 24.75 -47.574219 C 23.394531 -47.144531 22.027344 -46.789062 20.605469 -46.277344 C 17.605469 -45.316406 14.53125 -44.347656 11.523438 -43.457031 L 9.441406 -42.144531 C 5.726562 -39.488281 2.410156 -35.769531 0.855469 -31.414062 L 0.714844 -15.035156 C 2.128906 -11.933594 4.382812 -9.28125 7.03125 -7.113281 C 8.390625 -6.070312 9.957031 -5.117188 11.519531 -4.242188 C 13.914062 -3.152344 13.984375 -3.160156 13.984375 -3.160156 C 19.285156 -3.246094 24.074219 -3.28125 28.839844 -2.796875 C 28.992188 -2.738281 29.210938 -2.757812 29.4375 -2.707031 Z M 29.4375 -2.707031 "/></g></g></g><g fill="#d88497" fill-opacity="1"><g transform="translate(190.618095, 218.701231)"><g><path d="M 11.574219 -3.535156 C 15.382812 -5.386719 27.421875 -9.90625 29.910156 -11.050781 L 31.652344 -12.886719 L 32.089844 -18.234375 L 30.792969 -21.980469 C 27.914062 -30.152344 27.042969 -32.492188 23.238281 -40.6875 L 19.359375 -44.105469 C 18.722656 -44.675781 18.109375 -45.179688 17.542969 -45.773438 L 11.375 -46.882812 C 5.78125 -44.867188 1.714844 -42.859375 -4.40625 -40.300781 L -7.199219 -35.382812 L -7.214844 -31.160156 L 1.089844 -8.234375 L 3.859375 -4.9375 Z M 10.332031 -13.125 C 10.222656 -13.246094 10.179688 -13.382812 10.066406 -13.503906 C 9.101562 -14.898438 5.257812 -25.226562 4.695312 -26.820312 L 3.613281 -30.859375 L 3.664062 -30.953125 L 12.269531 -36.417969 C 12.292969 -36.347656 14.210938 -35.09375 14.230469 -35.023438 L 14.296875 -34.8125 C 14.804688 -32.898438 16.78125 -27.671875 20.144531 -19.417969 L 20.734375 -17.988281 L 17.890625 -16.507812 L 14.671875 -14.988281 Z M 10.332031 -13.125 "/></g></g></g><g fill="#92ce81" fill-opacity="1"><g transform="translate(19.587037, 173.336771)"><g><path d="M 2.339844 -0.652344 C 2.453125 -0.710938 2.566406 -0.765625 2.660156 -0.863281 C 3.609375 -1.910156 2.886719 -1.167969 5.203125 -3 C 5.203125 -3 9.171875 -5.804688 10.234375 -6.4375 C 12.039062 -7.488281 14.527344 -9.167969 16.273438 -10.140625 C 15.664062 -11.074219 15.089844 -12.023438 14.441406 -12.933594 C 13.066406 -14.8125 14.171875 -14.417969 12.652344 -13.839844 C 10.980469 -12.808594 7.941406 -11.566406 5.984375 -10.152344 C 5.355469 -11.40625 3.996094 -13.628906 3.367188 -14.882812 C 4.960938 -15.78125 6.558594 -16.679688 8.171875 -17.632812 C 8.097656 -17.691406 8.058594 -17.765625 8.019531 -17.84375 C 6.949219 -19.210938 8 -17.976562 6.605469 -19.609375 L 4.660156 -22.058594 C 3.425781 -21.484375 1.164062 -20.203125 0.746094 -19.898438 C 0.117188 -21.152344 -1.125 -23.527344 -1.238281 -23.753906 L -0.308594 -24.367188 C 1.246094 -25.339844 2.273438 -25.761719 3.832031 -26.542969 C 3.277344 -28.027344 2.355469 -31.5625 2.242188 -31.21875 C 2.089844 -31.144531 -0.683594 -30.03125 -2.128906 -29.402344 C -4.601562 -28.445312 -8.816406 -26.132812 -11.285156 -25.269531 C -8.785156 -21.054688 -6.300781 -16.78125 -4.007812 -12.410156 C -2.535156 -9.582031 -0.988281 -6.789062 0.558594 -3.996094 C 1.113281 -2.894531 1.726562 -1.773438 2.339844 -0.652344 Z M 2.339844 -0.652344 "/></g></g></g><g fill="#92ce81" fill-opacity="1"><g transform="translate(35.276998, 165.077397)"><g><path d="M 15.695312 -4.820312 L 16.410156 -5.53125 C 17.265625 -6.371094 18.09375 -7.292969 18.945312 -8.132812 L 19.746094 -8.867188 C 19.753906 -9.273438 19.515625 -9.332031 19.234375 -9.511719 L 14.277344 -14.351562 C 13.070312 -15.539062 11.832031 -16.671875 10.566406 -17.75 L 11.003906 -19.21875 C 11.957031 -22.492188 13.5625 -26.234375 13.660156 -27.957031 L 12.121094 -28.328125 C 10.753906 -28.578125 9.292969 -28.839844 8.015625 -29.382812 C 7.40625 -28.035156 6.816406 -24.164062 6.390625 -22.207031 L 6.214844 -21.488281 C 4.871094 -22.675781 3.496094 -23.8125 2.113281 -24.988281 C 1.269531 -25.707031 0.464844 -26.4375 -0.308594 -27.222656 L -0.742188 -27.757812 C -2.136719 -26.21875 -3.480469 -24.648438 -4.875 -23.109375 C -4.332031 -22.652344 -0.886719 -19.972656 0.238281 -19.070312 C 1.808594 -17.863281 3.351562 -16.601562 4.855469 -15.328125 L 4.296875 -13.246094 C 3.882812 -11.695312 3.269531 -10.214844 2.761719 -8.679688 L 2.414062 -7.636719 L 1.175781 -4.722656 C 0.972656 -4.214844 0.761719 -3.75 0.574219 -3.203125 L 0.445312 -2.894531 C 2.351562 -2.769531 4.332031 -2.84375 6.238281 -2.71875 C 6.238281 -2.71875 6.28125 -2.730469 6.308594 -2.785156 C 6.992188 -3.75 7.222656 -5.023438 7.453125 -6.160156 C 7.78125 -7.550781 8.777344 -10.972656 8.984375 -11.746094 L 10.679688 -10.132812 C 11.457031 -9.347656 12.285156 -8.535156 13.140625 -7.773438 C 13.976562 -6.785156 14.828125 -5.757812 15.695312 -4.820312 Z M 15.695312 -4.820312 "/></g></g></g><g fill="#92ce81" fill-opacity="1"><g transform="translate(54.508744, 159.092124)"><g><path d="M 7.332031 -0.992188 C 7.617188 -1.117188 7.90625 -1.199219 8.148438 -1.320312 C 9.878906 -1.855469 11.167969 -2.15625 12.550781 -2.730469 C 12.457031 -4.351562 12.210938 -8.394531 12.253906 -9.34375 C 12.183594 -9.847656 12.074219 -10.347656 12.007812 -10.855469 C 10.511719 -19.667969 10.398438 -20.507812 10.234375 -21.386719 L 10.105469 -22.359375 C 11.667969 -22.527344 15.070312 -22.773438 15.019531 -23.152344 C 14.808594 -24.070312 14.554688 -24.980469 14.304688 -25.890625 C 14.140625 -26.46875 14.015625 -27.050781 13.847656 -27.671875 C 13.601562 -27.597656 13.304688 -27.554688 13.015625 -27.472656 C 11.257812 -27.148438 9.539062 -26.832031 7.769531 -26.589844 C 6.378906 -26.402344 2.492188 -26.261719 1.816406 -26.171875 C 1.566406 -26.136719 1.3125 -26.101562 1.054688 -26.109375 C 0.125 -25.984375 -1.324219 -25.917969 -1.679688 -25.996094 C -1.601562 -24.164062 -1.566406 -22.320312 -1.488281 -20.484375 C 0.238281 -20.71875 1.957031 -21.039062 3.714844 -21.363281 C 4.332031 -17.113281 5.164062 -12.890625 5.832031 -8.601562 C 6.449219 -6.582031 6.824219 -4.445312 7.152344 -2.34375 Z M 7.332031 -0.992188 "/></g></g></g><g fill="#92ce81" fill-opacity="1"><g transform="translate(70.927897, 156.424071)"><g><path d="M 16.351562 2.148438 C 16.394531 2.148438 16.394531 2.109375 16.4375 2.109375 C 17.78125 1.433594 21.289062 0.917969 22.710938 0.414062 C 22.378906 -1.042969 21.953125 -2.167969 19.441406 -11.914062 C 20.179688 -12.355469 20.925781 -12.925781 21.542969 -13.542969 L 23.671875 -18.449219 C 23.691406 -21.425781 21.476562 -26.226562 16.4375 -26.957031 C 14.914062 -27.183594 13.347656 -27.449219 11.816406 -27.417969 L 3.703125 -26.683594 L 2.292969 -26.476562 C 2.296875 -25.371094 2.128906 -16.949219 2.066406 -15.207031 C 1.90625 -10.699219 1.648438 -5.6875 1.335938 -1.742188 L 1.386719 0.472656 C 3.570312 0.125 3.449219 -0.0078125 5.699219 0.0742188 C 6.679688 0.105469 7.613281 0.183594 8.078125 0.285156 C 8.203125 0.332031 8.328125 0.335938 8.414062 0.378906 C 8.804688 -2.246094 9.109375 -4.871094 9.285156 -7.503906 C 10.441406 -7.675781 11.597656 -7.890625 12.714844 -8.191406 C 12.757812 -8.191406 12.757812 -8.191406 12.753906 -8.148438 C 15.503906 -0.308594 13.988281 -5.679688 16.351562 2.148438 Z M 9.128906 -12.789062 C 8.976562 -16.835938 8.742188 -19.867188 8.679688 -20.507812 C 9.78125 -20.425781 11.523438 -20.320312 12.925781 -20.273438 C 13.691406 -20.246094 14.628906 -20.253906 15.054688 -20.324219 C 15.621094 -19.496094 16.230469 -18.667969 16.757812 -17.839844 C 16.253906 -16.835938 15.664062 -15.878906 14.953125 -15.007812 C 13.011719 -14.269531 10.988281 -13.617188 9.128906 -12.789062 Z M 9.128906 -12.789062 "/></g></g></g><g fill="#92ce81" fill-opacity="1"><g transform="translate(92.513117, 156.913587)"><g><path d="M 7.125 1.472656 C 7.964844 -0.644531 9.648438 -3.964844 10.210938 -4.316406 C 11.203125 -4.261719 15.9375 -3.777344 16.328125 -3.773438 L 16.605469 -2.136719 C 17.632812 2.289062 16.707031 -1.066406 18.167969 3.550781 C 20.335938 3.613281 20.683594 3.433594 22.847656 3.324219 C 22.941406 3.300781 22.984375 3.308594 23.023438 3.320312 C 23.019531 2.96875 22.980469 2.566406 22.652344 -0.171875 C 22.410156 -2.890625 22.09375 -4.929688 21.394531 -9.0625 C 20.722656 -12.578125 18.980469 -20.710938 18.773438 -22.636719 C 15.089844 -23.136719 14.375 -23.261719 13.726562 -23.28125 L 11.886719 -23.441406 C 10.789062 -21.339844 7.21875 -14.21875 6.617188 -12.746094 C 5.890625 -11.121094 2.65625 -3.183594 1.359375 -0.210938 L 2.019531 -0.0546875 C 3.753906 0.386719 5.421875 0.90625 7.125 1.472656 Z M 11.867188 -8.082031 L 15.066406 -15.679688 C 14.960938 -12.953125 15.441406 -9.566406 15.691406 -7.808594 L 12.558594 -8.050781 Z M 11.867188 -8.082031 "/></g></g></g><g fill="#63bb7e" fill-opacity="1"><g transform="translate(115.012455, 159.100908)"><g><path d="M 1.34375 0.398438 C 1.519531 0.40625 1.722656 0.46875 1.886719 0.515625 C 2.738281 0.636719 5.5625 1.433594 6.136719 1.601562 L 8.09375 -3.9375 L 9.835938 -9.941406 C 10.125 -8.527344 10.453125 -7.097656 10.824219 -5.65625 C 12.78125 1.9375 12.367188 -0.847656 12.625 3.355469 C 14.785156 3.996094 16.945312 4.640625 19.09375 5.324219 C 19.414062 4.398438 20.519531 0.6875 20.785156 -0.207031 C 21.285156 -1.746094 25.117188 -14.628906 25.59375 -16.082031 C 24.4375 -16.515625 21.183594 -17.660156 20.746094 -17.835938 L 20.660156 -17.550781 C 20.496094 -16.84375 20.238281 -16.125 16.707031 -4.703125 L 16.460938 -6.109375 L 14.691406 -19.859375 L 14.648438 -20.003906 C 14.210938 -20.179688 10.015625 -21.738281 8.355469 -22.277344 C 7.039062 -18.894531 5.832031 -15.128906 4.738281 -11.457031 C 3.394531 -6.933594 2.242188 -2.617188 1.34375 0.398438 Z M 1.34375 0.398438 "/></g></g></g><g fill="#63bb7e" fill-opacity="1"><g transform="translate(138.271766, 165.490736)"><g><path d="M 5.03125 0.542969 C 8.457031 0.914062 9.78125 0.929688 13.015625 0.292969 C 14.089844 -1.730469 13.796875 -0.605469 14.238281 -2.3125 C 15.53125 -7.945312 15.972656 -11.621094 16.617188 -17.582031 C 16.875 -19.996094 17.570312 -27.191406 17.617188 -28.042969 C 16.675781 -28.015625 13.75 -28.289062 10.285156 -28.664062 C 10.109375 -25.859375 9.386719 -16.78125 9.210938 -13.976562 C 9.15625 -13.085938 8.824219 -10 8.710938 -9.367188 C 8.578125 -8.527344 8.289062 -7.019531 7.835938 -5.226562 C 7.609375 -4.695312 6.394531 -4.144531 5.984375 -5.085938 C 5.34375 -6.308594 5.132812 -7.101562 5.007812 -7.929688 C 4.703125 -7.875 2.855469 -7.433594 2.25 -7.371094 L 2.082031 -7.390625 C 2.164062 -6.183594 2.074219 -4.953125 1.941406 -3.726562 C 1.933594 -3.640625 1.964844 -3.550781 2 -3.464844 L 2.539062 -1.734375 C 3.078125 -1.164062 3.613281 -0.59375 4.425781 0.222656 Z M 5.03125 0.542969 "/></g></g></g><g fill="#63bb7e" fill-opacity="1"><g transform="translate(156.995402, 167.452994)"><g><path d="M 2.410156 0.300781 C 2.535156 0.289062 2.664062 0.28125 2.789062 0.230469 C 4.066406 -0.371094 3.113281 0.0351562 5.957031 -0.757812 C 5.957031 -0.757812 10.703125 -1.816406 11.925781 -1.988281 C 13.996094 -2.261719 16.941406 -2.851562 18.929688 -3.078125 C 18.722656 -4.171875 18.5625 -5.269531 18.3125 -6.359375 C 17.769531 -8.625 18.636719 -7.832031 17.011719 -7.890625 C 15.074219 -7.582031 11.789062 -7.605469 9.4375 -7.058594 C 9.339844 -8.457031 8.945312 -11.03125 8.847656 -12.433594 C 10.667969 -12.644531 12.484375 -12.859375 14.34375 -13.117188 C 14.292969 -13.199219 14.289062 -13.28125 14.28125 -13.367188 C 13.824219 -15.042969 14.316406 -13.5 13.660156 -15.542969 L 12.808594 -18.550781 C 11.449219 -18.5 8.871094 -18.191406 8.367188 -18.070312 C 8.269531 -19.46875 8.039062 -22.140625 8.019531 -22.394531 L 9.113281 -22.597656 C 10.925781 -22.894531 12.035156 -22.890625 13.777344 -23.011719 C 13.835938 -24.59375 14.347656 -28.210938 14.113281 -27.9375 C 13.941406 -27.925781 10.953125 -27.972656 9.378906 -27.945312 C 6.730469 -28.015625 1.949219 -27.511719 -0.664062 -27.667969 C 0.0195312 -22.8125 0.660156 -17.910156 1.089844 -12.996094 C 1.355469 -9.816406 1.707031 -6.644531 2.058594 -3.46875 C 2.144531 -2.238281 2.277344 -0.96875 2.410156 0.300781 Z M 2.410156 0.300781 "/></g></g></g><g fill="#63bb7e" fill-opacity="1"><g transform="translate(180.363988, 165.693518)"><g><path d="M 16.199219 -3.09375 C 16.242188 -3.105469 16.230469 -3.144531 16.269531 -3.15625 C 17.332031 -4.222656 20.5 -5.8125 21.695312 -6.738281 C 20.921875 -8.015625 20.160156 -8.949219 14.71875 -17.414062 C 15.28125 -18.066406 15.808594 -18.84375 16.203125 -19.621094 L 16.683594 -24.945312 C 15.765625 -27.78125 12.15625 -31.644531 7.144531 -30.753906 C 5.625 -30.488281 4.054688 -30.253906 2.609375 -29.742188 L -4.859375 -26.496094 L -6.136719 -25.855469 C -5.785156 -24.808594 -3.300781 -16.761719 -2.8125 -15.085938 C -1.546875 -10.757812 -0.222656 -5.917969 0.722656 -2.074219 L 1.464844 0.015625 C 3.429688 -1 3.269531 -1.089844 5.433594 -1.71875 C 6.375 -1.996094 7.285156 -2.214844 7.757812 -2.265625 C 7.890625 -2.261719 8.015625 -2.296875 8.105469 -2.28125 C 7.652344 -4.894531 7.117188 -7.484375 6.460938 -10.039062 C 7.503906 -10.566406 8.535156 -11.132812 9.5 -11.769531 C 9.539062 -11.78125 9.539062 -11.78125 9.554688 -11.742188 C 14.621094 -5.15625 11.5 -9.785156 16.199219 -3.09375 Z M 4.65625 -15.007812 C 3.234375 -18.800781 2.0625 -21.605469 1.800781 -22.195312 C 2.875 -22.464844 4.5625 -22.910156 5.910156 -23.304688 C 6.644531 -23.519531 7.53125 -23.824219 7.914062 -24.023438 C 8.710938 -23.414062 9.550781 -22.820312 10.308594 -22.199219 C 10.144531 -21.085938 9.890625 -19.992188 9.488281 -18.945312 C 7.875 -17.632812 6.160156 -16.378906 4.65625 -15.007812 Z M 4.65625 -15.007812 "/></g></g></g><g fill="#63bb7e" fill-opacity="1"><g transform="translate(206.480857, 157.585209)"><g><path d="M 6.136719 -3.402344 C 8.074219 -4.910156 14.355469 -8.929688 15.628906 -9.878906 L 16.394531 -11.128906 L 15.996094 -14.214844 L 14.808594 -16.183594 C 12.191406 -20.46875 11.414062 -21.695312 8.269531 -25.882812 L 5.652344 -27.351562 C 5.226562 -27.597656 4.816406 -27.808594 4.421875 -28.078125 L 0.792969 -27.960938 C -2.136719 -26.144531 -4.203125 -24.515625 -7.363281 -22.324219 L -8.355469 -19.199219 L -7.851562 -16.800781 L -0.375 -4.800781 L 1.59375 -3.265625 Z M 4.277344 -8.691406 C 4.199219 -8.746094 4.15625 -8.820312 4.078125 -8.875 C 3.363281 -9.546875 -0.0625 -14.941406 -0.574219 -15.777344 L -1.675781 -17.9375 L -1.660156 -17.996094 L 2.5625 -22.136719 C 2.582031 -22.097656 3.824219 -21.617188 3.84375 -21.582031 L 3.90625 -21.46875 C 4.425781 -20.445312 6.175781 -17.71875 9.082031 -13.445312 L 9.589844 -12.707031 L 8.152344 -11.523438 L 6.511719 -10.273438 Z M 4.277344 -8.691406 "/></g></g></g><g fill="#63bb7e" fill-opacity="1"><g transform="translate(20.843255, 222.553834)"><g><path d="M 2.179688 -0.308594 C 2.730469 -0.609375 3.28125 -0.90625 3.777344 -1.050781 C 5.945312 -1.953125 8.3125 -2.507812 10.625 -2.910156 C 10.773438 -5.003906 10.292969 -8.417969 10.296875 -11.53125 C 10.183594 -12.847656 9.332031 -24.65625 8.921875 -29.117188 C 11.242188 -26.851562 13.769531 -24.691406 16.226562 -22.519531 L 20.246094 -19.234375 C 20.609375 -19.285156 23.195312 -19.871094 24.054688 -20.070312 C 24.472656 -20.792969 27.007812 -24.855469 28.121094 -26.941406 L 29.941406 -30.308594 C 29.929688 -30.382812 29.929688 -30.382812 29.992188 -30.464844 C 32.078125 -22.535156 34.078125 -14.671875 35.652344 -6.667969 L 35.726562 -6.160156 C 38.214844 -6.882812 40.789062 -7.542969 43.40625 -7.914062 C 42.921875 -10.289062 42.4375 -12.667969 41.878906 -15.03125 C 39.839844 -23.707031 36.691406 -36.003906 34.929688 -44.792969 C 34.332031 -46.933594 34.167969 -47.574219 33.929688 -48.207031 L 30.339844 -47.921875 C 28.960938 -47.726562 27.507812 -47.523438 26.136719 -47.253906 C 23.414062 -42.945312 21.976562 -40 19.234375 -36.351562 C 19.035156 -36.175781 18.921875 -35.9375 18.796875 -35.773438 C 18.070312 -36.1875 10.503906 -40.453125 7.78125 -42.957031 L 7.292969 -43.777344 L 7.253906 -44.066406 C 6.539062 -43.890625 5.894531 -43.726562 5.1875 -43.480469 C 3.113281 -42.964844 1.039062 -42.449219 -1.058594 -42.078125 C -0.449219 -32.53125 0.328125 -19.160156 1.238281 -9.582031 C 1.453125 -6.503906 1.820312 -3.367188 2.179688 -0.308594 Z M 2.179688 -0.308594 "/></g></g></g><g fill="#63bb7e" fill-opacity="1"><g transform="translate(62.53278, 216.870122)"><g><path d="M 20.054688 -52.515625 C 19.628906 -51.703125 15.164062 -42.820312 14.453125 -41.484375 C 16.007812 -40.632812 20.894531 -38.078125 22.453125 -37.078125 C 23.59375 -39.007812 27.859375 -46.636719 28.578125 -47.605469 L 28.578125 -47.679688 C 24.796875 -49.886719 24.207031 -49.949219 20.054688 -52.515625 Z M 12.898438 -9.105469 C 12.449219 -9.683594 12.066406 -10.484375 11.757812 -11.359375 C 14.964844 -12.589844 24.574219 -16.867188 27.679688 -19.5625 C 27.890625 -20.007812 28.394531 -28.96875 27.480469 -30.710938 L 24.878906 -32.644531 C 22.140625 -33.992188 19.488281 -34.824219 16.910156 -35.367188 C 12.890625 -34.414062 9.546875 -32.742188 6.871094 -30.492188 C 4.003906 -26.703125 2.394531 -22.273438 1.894531 -17.273438 C 2.503906 -11.855469 3.46875 -7.105469 5.289062 -3.761719 C 8.625 -1.765625 11.65625 -0.425781 14.082031 -0.25 C 14.082031 -0.25 28.132812 -6.441406 28.746094 -9.089844 L 25.078125 -13.207031 Z M 19.671875 -24.335938 C 20.84375 -24.503906 22.019531 -24.304688 22.910156 -23.734375 C 19.578125 -21.402344 13.414062 -17.183594 11.015625 -15.894531 C 11.050781 -18.097656 11.597656 -20.308594 12.890625 -21.871094 C 12.890625 -21.871094 16.449219 -24.0625 19.671875 -24.335938 Z M 19.671875 -24.335938 "/></g></g></g><g fill="#63bb7e" fill-opacity="1"><g transform="translate(89.514082, 215.963422)"><g><path d="M 39.648438 -33.851562 L 31.621094 -37.902344 L 20.71875 -25.054688 L 12.484375 -38.039062 L 6.515625 -35.640625 L 15.75 -19.105469 L 2.527344 -3.449219 L 13.246094 2.542969 L 21.503906 -8.777344 L 28.265625 3.410156 L 35.324219 -2.058594 L 26.574219 -15.824219 Z M 39.648438 -33.851562 "/></g></g></g><g fill="#d88497" fill-opacity="1"><g transform="translate(128.858536, 219.68447)"><g><path d="M 7.765625 -35.371094 L 16.585938 -36.042969 L 17.433594 -44.589844 L 8.152344 -43.238281 Z M 3.5625 0.476562 L 12.054688 0.0585938 L 14.886719 -13.921875 L 15.960938 -31.90625 L 7.550781 -33.773438 L 5.011719 -20.867188 Z M 3.5625 0.476562 "/></g></g></g><g clip-path="url(#id77)"><g clip-path="url(#id78)"><path fill="#ffffff" d="M 133.613281 167.179688 L 152.300781 168.726562 L 150.816406 186.664062 L 132.128906 185.121094 L 133.613281 167.179688 " fill-opacity="1" fill-rule="nonzero"/></g></g><g fill="#000000" fill-opacity="1"><g transform="translate(130.566835, 182.773555)"><g><path d="M 1.105469 0.152344 C 1.164062 0.148438 1.222656 0.144531 1.28125 0.121094 C 1.871094 -0.148438 1.433594 0.0351562 2.742188 -0.316406 C 2.742188 -0.316406 4.929688 -0.773438 5.496094 -0.847656 C 6.449219 -0.960938 7.804688 -1.214844 8.71875 -1.304688 C 8.632812 -1.8125 8.5625 -2.316406 8.457031 -2.820312 C 8.21875 -3.863281 8.613281 -3.492188 7.867188 -3.53125 C 6.972656 -3.398438 5.464844 -3.429688 4.378906 -3.191406 C 4.34375 -3.835938 4.175781 -5.019531 4.140625 -5.664062 C 4.976562 -5.753906 5.8125 -5.839844 6.667969 -5.949219 C 6.648438 -5.984375 6.644531 -6.023438 6.644531 -6.0625 C 6.441406 -6.835938 6.660156 -6.125 6.371094 -7.066406 L 5.996094 -8.457031 C 5.371094 -8.4375 4.183594 -8.3125 3.949219 -8.257812 C 3.914062 -8.902344 3.824219 -10.132812 3.816406 -10.25 L 4.320312 -10.335938 C 5.15625 -10.464844 5.664062 -10.453125 6.464844 -10.5 C 6.5 -11.226562 6.757812 -12.886719 6.648438 -12.761719 C 6.570312 -12.757812 5.195312 -12.796875 4.472656 -12.792969 C 3.253906 -12.84375 1.054688 -12.636719 -0.148438 -12.722656 C 0.140625 -10.488281 0.40625 -8.230469 0.578125 -5.96875 C 0.679688 -4.503906 0.824219 -3.042969 0.964844 -1.582031 C 1 -1.015625 1.050781 -0.433594 1.105469 0.152344 Z M 1.105469 0.152344 "/></g></g></g><g fill="#000000" fill-opacity="1"><g transform="translate(141.011722, 182.311606)"><g><path d="M 0.625 0.164062 C 0.703125 0.164062 0.800781 0.191406 0.875 0.210938 C 1.269531 0.253906 2.578125 0.578125 2.84375 0.648438 L 3.664062 -1.925781 L 4.375 -4.710938 C 4.53125 -4.0625 4.703125 -3.410156 4.890625 -2.753906 C 5.902344 0.707031 5.671875 -0.566406 5.851562 1.359375 C 6.851562 1.625 7.855469 1.890625 8.851562 2.171875 C 8.984375 1.742188 9.4375 0.0195312 9.546875 -0.394531 C 9.757812 -1.109375 11.332031 -7.082031 11.53125 -7.757812 C 10.992188 -7.941406 9.480469 -8.421875 9.277344 -8.496094 L 9.242188 -8.363281 C 9.175781 -8.035156 9.070312 -7.699219 7.609375 -2.402344 L 7.476562 -3.042969 L 6.464844 -9.335938 L 6.445312 -9.402344 C 6.242188 -9.476562 4.289062 -10.132812 3.519531 -10.355469 C 2.964844 -8.785156 2.460938 -7.035156 2.011719 -5.335938 C 1.460938 -3.234375 0.992188 -1.234375 0.625 0.164062 Z M 0.625 0.164062 "/></g></g></g></svg>